REM DIRINDEX 1\2\4,1\2\5,1\2\6,1\3\7,1\3\8,1\3\9,1\3\10
REM DIRNAME cjc057,folder01,folder02,folder03,folder04,folder05,folder06,folder07,folder08,folder09
TITLE ""
FILE "b_178.mp3" MP3
  TRACK 01 AUDIO
    TITLE "0:"
    INDEX 01 00:00:00
  TRACK 02 AUDIO
    TITLE "7:cjc057_09493"
    INDEX 01 00:00:11
  TRACK 03 AUDIO
    TITLE "0:"
    INDEX 01 00:01:34
  TRACK 04 AUDIO
    TITLE "8:cjc057_09494"
    INDEX 01 00:01:62
  TRACK 05 AUDIO
    TITLE "0:"
    INDEX 01 00:03:21
  TRACK 06 AUDIO
    TITLE "9:cjc057_09495"
    INDEX 01 00:03:59
  TRACK 07 AUDIO
    TITLE "0:"
    INDEX 01 00:06:20
  TRACK 08 AUDIO
    TITLE "7:cjc057_09496"
    INDEX 01 00:07:23
  TRACK 09 AUDIO
    TITLE "0:"
    INDEX 01 00:08:56
  TRACK 10 AUDIO
    TITLE "8:cjc057_09497"
    INDEX 01 00:09:08
  TRACK 11 AUDIO
    TITLE "0:"
    INDEX 01 00:11:54
  TRACK 12 AUDIO
    TITLE "9:cjc057_09498"
    INDEX 01 00:12:22
  TRACK 13 AUDIO
    TITLE "0:"
    INDEX 01 00:15:34
  TRACK 14 AUDIO
    TITLE "7:cjc057_09499"
    INDEX 01 00:16:38
  TRACK 15 AUDIO
    TITLE "0:"
    INDEX 01 00:17:57
  TRACK 16 AUDIO
    TITLE "8:cjc057_09500"
    INDEX 01 00:18:07
  TRACK 17 AUDIO
    TITLE "0:"
    INDEX 01 00:19:38
  TRACK 18 AUDIO
    TITLE "9:cjc057_09501"
    INDEX 01 00:20:02
  TRACK 19 AUDIO
    TITLE "0:"
    INDEX 01 00:24:37
  TRACK 20 AUDIO
    TITLE "7:cjc057_09502"
    INDEX 01 00:25:41
  TRACK 21 AUDIO
    TITLE "0:"
    INDEX 01 00:26:67
  TRACK 22 AUDIO
    TITLE "8:cjc057_09503"
    INDEX 01 00:27:22
  TRACK 23 AUDIO
    TITLE "0:"
    INDEX 01 00:28:31
  TRACK 24 AUDIO
    TITLE "9:cjc057_09504"
    INDEX 01 00:28:70
  TRACK 25 AUDIO
    TITLE "0:"
    INDEX 01 00:32:35
  TRACK 26 AUDIO
    TITLE "7:cjc057_09505"
    INDEX 01 00:33:34
  TRACK 27 AUDIO
    TITLE "0:"
    INDEX 01 00:34:61
  TRACK 28 AUDIO
    TITLE "8:cjc057_09506"
    INDEX 01 00:35:15
  TRACK 29 AUDIO
    TITLE "0:"
    INDEX 01 00:36:46
  TRACK 30 AUDIO
    TITLE "9:cjc057_09507"
    INDEX 01 00:37:12
  TRACK 31 AUDIO
    TITLE "0:"
    INDEX 01 00:40:54
  TRACK 32 AUDIO
    TITLE "7:cjc057_09508"
    INDEX 01 00:41:57
  TRACK 33 AUDIO
    TITLE "0:"
    INDEX 01 00:43:17
  TRACK 34 AUDIO
    TITLE "8:cjc057_09509"
    INDEX 01 00:43:46
  TRACK 35 AUDIO
    TITLE "0:"
    INDEX 01 00:46:21
  TRACK 36 AUDIO
    TITLE "9:cjc057_09510"
    INDEX 01 00:46:62
  TRACK 37 AUDIO
    TITLE "0:"
    INDEX 01 00:49:29
  TRACK 38 AUDIO
    TITLE "7:cjc057_09511"
    INDEX 01 00:50:33
  TRACK 39 AUDIO
    TITLE "0:"
    INDEX 01 00:51:56
  TRACK 40 AUDIO
    TITLE "8:cjc057_09512"
    INDEX 01 00:52:10
  TRACK 41 AUDIO
    TITLE "0:"
    INDEX 01 00:54:23
  TRACK 42 AUDIO
    TITLE "9:cjc057_09513"
    INDEX 01 00:54:64
  TRACK 43 AUDIO
    TITLE "0:"
    INDEX 01 00:58:42
  TRACK 44 AUDIO
    TITLE "7:cjc057_09514"
    INDEX 01 00:59:47
  TRACK 45 AUDIO
    TITLE "0:"
    INDEX 01 01:01:01
  TRACK 46 AUDIO
    TITLE "8:cjc057_09515"
    INDEX 01 01:01:29
  TRACK 47 AUDIO
    TITLE "0:"
    INDEX 01 01:02:57
  TRACK 48 AUDIO
    TITLE "9:cjc057_09516"
    INDEX 01 01:03:26
  TRACK 49 AUDIO
    TITLE "0:"
    INDEX 01 01:07:14
  TRACK 50 AUDIO
    TITLE "7:cjc057_09517"
    INDEX 01 01:08:19
  TRACK 51 AUDIO
    TITLE "0:"
    INDEX 01 01:09:42
  TRACK 52 AUDIO
    TITLE "8:cjc057_09518"
    INDEX 01 01:09:71
  TRACK 53 AUDIO
    TITLE "0:"
    INDEX 01 01:12:50
  TRACK 54 AUDIO
    TITLE "9:cjc057_09519"
    INDEX 01 01:13:16
  TRACK 55 AUDIO
    TITLE "0:"
    INDEX 01 01:16:48
  TRACK 56 AUDIO
    TITLE "7:cjc057_09520"
    INDEX 01 01:17:51
  TRACK 57 AUDIO
    TITLE "0:"
    INDEX 01 01:18:72
  TRACK 58 AUDIO
    TITLE "8:cjc057_09521"
    INDEX 01 01:19:25
  TRACK 59 AUDIO
    TITLE "0:"
    INDEX 01 01:22:01
  TRACK 60 AUDIO
    TITLE "9:cjc057_09522"
    INDEX 01 01:22:44
  TRACK 61 AUDIO
    TITLE "0:"
    INDEX 01 01:26:46
  TRACK 62 AUDIO
    TITLE "7:cjc057_09523"
    INDEX 01 01:27:51
  TRACK 63 AUDIO
    TITLE "0:"
    INDEX 01 01:28:72
  TRACK 64 AUDIO
    TITLE "8:cjc057_09524"
    INDEX 01 01:29:27
  TRACK 65 AUDIO
    TITLE "0:"
    INDEX 01 01:32:15
  TRACK 66 AUDIO
    TITLE "9:cjc057_09525"
    INDEX 01 01:32:57
  TRACK 67 AUDIO
    TITLE "0:"
    INDEX 01 01:36:11
